<svg id="visual" viewBox="0 0 900 600" width="900" height="600" xmlns="http://www.w3.org/2000/svg" xmlns:xlink="http://www.w3.org/1999/xlink" version="1.1"><path d="M0 91L13.7 84C27.3 77 54.7 63 82 59C109.3 55 136.7 61 163.8 64C191 67 218 67 245.2 65C272.3 63 299.7 59 327 63C354.3 67 381.7 79 409 83C436.3 87 463.7 83 491 83C518.3 83 545.7 87 573 85C600.3 83 627.7 75 654.8 77C682 79 709 91 736.2 90C763.3 89 790.7 75 818 66C845.3 57 872.7 53 886.3 51L900 49L900 0L886.3 0C872.7 0 845.3 0 818 0C790.7 0 763.3 0 736.2 0C709 0 682 0 654.8 0C627.7 0 600.3 0 573 0C545.7 0 518.3 0 491 0C463.7 0 436.3 0 409 0C381.7 0 354.3 0 327 0C299.7 0 272.3 0 245.2 0C218 0 191 0 163.8 0C136.7 0 109.3 0 82 0C54.7 0 27.3 0 13.7 0L0 0Z" fill="#97d1ff"></path><path d="M0 139L13.7 134C27.3 129 54.7 119 82 125C109.3 131 136.7 153 163.8 162C191 171 218 167 245.2 176C272.3 185 299.7 207 327 210C354.3 213 381.7 197 409 196C436.3 195 463.7 209 491 205C518.3 201 545.7 179 573 166C600.3 153 627.7 149 654.8 166C682 183 709 221 736.2 219C763.3 217 790.7 175 818 151C845.3 127 872.7 121 886.3 118L900 115L900 47L886.3 49C872.7 51 845.3 55 818 64C790.7 73 763.3 87 736.2 88C709 89 682 77 654.8 75C627.7 73 600.3 81 573 83C545.7 85 518.3 81 491 81C463.7 81 436.3 85 409 81C381.7 77 354.3 65 327 61C299.7 57 272.3 61 245.2 63C218 65 191 65 163.8 62C136.7 59 109.3 53 82 57C54.7 61 27.3 75 13.7 82L0 89Z" fill="#7cc6ff"></path><path d="M0 223L13.7 213C27.3 203 54.7 183 82 183C109.3 183 136.7 203 163.8 213C191 223 218 223 245.2 233C272.3 243 299.7 263 327 272C354.3 281 381.7 279 409 278C436.3 277 463.7 277 491 270C518.3 263 545.7 249 573 244C600.3 239 627.7 243 654.8 256C682 269 709 291 736.2 292C763.3 293 790.7 273 818 261C845.3 249 872.7 245 886.3 243L900 241L900 113L886.3 116C872.7 119 845.3 125 818 149C790.7 173 763.3 215 736.2 217C709 219 682 181 654.8 164C627.7 147 600.3 151 573 164C545.7 177 518.3 199 491 203C463.7 207 436.3 193 409 194C381.7 195 354.3 211 327 208C299.7 205 272.3 183 245.2 174C218 165 191 169 163.8 160C136.7 151 109.3 129 82 123C54.7 117 27.3 127 13.7 132L0 137Z" fill="#5bbcff"></path><path d="M0 367L13.7 372C27.3 377 54.7 387 82 392C109.3 397 136.7 397 163.8 400C191 403 218 409 245.2 410C272.3 411 299.7 407 327 401C354.3 395 381.7 387 409 395C436.3 403 463.7 427 491 430C518.3 433 545.7 415 573 401C600.3 387 627.7 377 654.8 384C682 391 709 415 736.2 421C763.3 427 790.7 415 818 408C845.3 401 872.7 399 886.3 398L900 397L900 239L886.3 241C872.7 243 845.3 247 818 259C790.7 271 763.3 291 736.2 290C709 289 682 267 654.8 254C627.7 241 600.3 237 573 242C545.7 247 518.3 261 491 268C463.7 275 436.3 275 409 276C381.7 277 354.3 279 327 270C299.7 261 272.3 241 245.2 231C218 221 191 221 163.8 211C136.7 201 109.3 181 82 181C54.7 181 27.3 201 13.7 211L0 221Z" fill="#4da3e1"></path><path d="M0 601L13.7 601C27.3 601 54.7 601 82 601C109.3 601 136.7 601 163.8 601C191 601 218 601 245.2 601C272.3 601 299.7 601 327 601C354.3 601 381.7 601 409 601C436.3 601 463.7 601 491 601C518.3 601 545.7 601 573 601C600.3 601 627.7 601 654.8 601C682 601 709 601 736.2 601C763.3 601 790.7 601 818 601C845.3 601 872.7 601 886.3 601L900 601L900 395L886.3 396C872.7 397 845.3 399 818 406C790.7 413 763.3 425 736.2 419C709 413 682 389 654.8 382C627.7 375 600.3 385 573 399C545.7 413 518.3 431 491 428C463.7 425 436.3 401 409 393C381.7 385 354.3 393 327 399C299.7 405 272.3 409 245.2 408C218 407 191 401 163.8 398C136.7 395 109.3 395 82 390C54.7 385 27.3 375 13.7 370L0 365Z" fill="#3f8bc4"></path></svg>