<svg id="visual" viewBox="0 0 900 600" width="900" height="600" xmlns="http://www.w3.org/2000/svg" xmlns:xlink="http://www.w3.org/1999/xlink" version="1.1"><path d="M0 133L13.7 133C27.3 133 54.7 133 82 128C109.3 123 136.7 113 163.8 102C191 91 218 79 245.2 87C272.3 95 299.7 123 327 124C354.3 125 381.7 99 409 99C436.3 99 463.7 125 491 132C518.3 139 545.7 127 573 112C600.3 97 627.7 79 654.8 81C682 83 709 105 736.2 112C763.3 119 790.7 111 818 105C845.3 99 872.7 95 886.3 93L900 91L900 0L886.3 0C872.7 0 845.3 0 818 0C790.7 0 763.3 0 736.2 0C709 0 682 0 654.8 0C627.7 0 600.3 0 573 0C545.7 0 518.3 0 491 0C463.7 0 436.3 0 409 0C381.7 0 354.3 0 327 0C299.7 0 272.3 0 245.2 0C218 0 191 0 163.8 0C136.7 0 109.3 0 82 0C54.7 0 27.3 0 13.7 0L0 0Z" fill="#4985c9"></path><path d="M0 187L13.7 196C27.3 205 54.7 223 82 220C109.3 217 136.7 193 163.8 183C191 173 218 177 245.2 193C272.3 209 299.7 237 327 239C354.3 241 381.7 217 409 214C436.3 211 463.7 229 491 226C518.3 223 545.7 199 573 187C600.3 175 627.7 175 654.8 181C682 187 709 199 736.2 207C763.3 215 790.7 219 818 214C845.3 209 872.7 195 886.3 188L900 181L900 89L886.3 91C872.7 93 845.3 97 818 103C790.7 109 763.3 117 736.2 110C709 103 682 81 654.8 79C627.7 77 600.3 95 573 110C545.7 125 518.3 137 491 130C463.7 123 436.3 97 409 97C381.7 97 354.3 123 327 122C299.7 121 272.3 93 245.2 85C218 77 191 89 163.8 100C136.7 111 109.3 121 82 126C54.7 131 27.3 131 13.7 131L0 131Z" fill="#3072bd"></path><path d="M0 337L13.7 339C27.3 341 54.7 345 82 348C109.3 351 136.7 353 163.8 349C191 345 218 335 245.2 349C272.3 363 299.7 401 327 413C354.3 425 381.7 411 409 399C436.3 387 463.7 377 491 380C518.3 383 545.7 399 573 404C600.3 409 627.7 403 654.8 397C682 391 709 385 736.2 377C763.3 369 790.7 359 818 340C845.3 321 872.7 293 886.3 279L900 265L900 179L886.3 186C872.7 193 845.3 207 818 212C790.7 217 763.3 213 736.2 205C709 197 682 185 654.8 179C627.7 173 600.3 173 573 185C545.7 197 518.3 221 491 224C463.7 227 436.3 209 409 212C381.7 215 354.3 239 327 237C299.7 235 272.3 207 245.2 191C218 175 191 171 163.8 181C136.7 191 109.3 215 82 218C54.7 221 27.3 203 13.7 194L0 185Z" fill="#0b60b0"></path><path d="M0 565L13.7 564C27.3 563 54.7 561 82 551C109.3 541 136.7 523 163.8 517C191 511 218 517 245.2 526C272.3 535 299.7 547 327 546C354.3 545 381.7 531 409 530C436.3 529 463.7 541 491 546C518.3 551 545.7 549 573 543C600.3 537 627.7 527 654.8 519C682 511 709 505 736.2 506C763.3 507 790.7 515 818 521C845.3 527 872.7 531 886.3 533L900 535L900 263L886.3 277C872.7 291 845.3 319 818 338C790.7 357 763.3 367 736.2 375C709 383 682 389 654.8 395C627.7 401 600.3 407 573 402C545.7 397 518.3 381 491 378C463.7 375 436.3 385 409 397C381.7 409 354.3 423 327 411C299.7 399 272.3 361 245.2 347C218 333 191 343 163.8 347C136.7 351 109.3 349 82 346C54.7 343 27.3 339 13.7 337L0 335Z" fill="#035398"></path><path d="M0 601L13.7 601C27.3 601 54.7 601 82 601C109.3 601 136.7 601 163.8 601C191 601 218 601 245.2 601C272.3 601 299.7 601 327 601C354.3 601 381.7 601 409 601C436.3 601 463.7 601 491 601C518.3 601 545.7 601 573 601C600.3 601 627.7 601 654.8 601C682 601 709 601 736.2 601C763.3 601 790.7 601 818 601C845.3 601 872.7 601 886.3 601L900 601L900 533L886.3 531C872.7 529 845.3 525 818 519C790.7 513 763.3 505 736.2 504C709 503 682 509 654.8 517C627.7 525 600.3 535 573 541C545.7 547 518.3 549 491 544C463.7 539 436.3 527 409 528C381.7 529 354.3 543 327 544C299.7 545 272.3 533 245.2 524C218 515 191 509 163.8 515C136.7 521 109.3 539 82 549C54.7 559 27.3 561 13.7 562L0 563Z" fill="#004781"></path></svg>